/* XPM */
static char *result[] = {
/* columns rows colors chars-per-pixel */
"64 64 240 2 ",
"   c #362305",
".  c #3A2506",
"X  c #3E2906",
"o  c #3E2908",
"O  c #3C2708",
"+  c #422B06",
"@  c #432D0A",
"#  c #473105",
"$  c #4A3306",
"%  c #46310B",
"&  c #4B340C",
"*  c #4F380E",
"=  c #4F3806",
"-  c #543A06",
";  c #51360D",
":  c #543A0D",
">  c #583D0D",
",  c #553A06",
"<  c #442F11",
"1  c #463211",
"2  c #4B3612",
"3  c #4E3913",
"4  c #4F3B19",
"5  c #533C13",
"6  c #593E11",
"7  c #523A16",
"8  c #5C4206",
"9  c #5B420C",
"0  c #57400B",
"q  c #574115",
"w  c #5C4313",
"e  c #5E4719",
"r  c #644906",
"t  c #694D06",
"y  c #62460C",
"u  c #644A0B",
"i  c #694D0B",
"p  c #624605",
"a  c #6D5206",
"s  c #6C520C",
"d  c #7A5A05",
"f  c #72550A",
"g  c #755A0A",
"h  c #765907",
"j  c #624513",
"k  c #654A14",
"l  c #6B4C14",
"z  c #644B19",
"x  c #6B4D19",
"c  c #644617",
"v  c #714D12",
"b  c #714F18",
"n  c #6D5114",
"m  c #6C521A",
"M  c #675019",
"N  c #735514",
"B  c #765A14",
"V  c #7B5C14",
"C  c #73551A",
"Z  c #7A551B",
"A  c #755A1B",
"S  c #7B5D1B",
"D  c #795715",
"F  c #7E6107",
"G  c #7E6115",
"H  c #7D611B",
"J  c #7A5C24",
"K  c #7D6227",
"L  c #835C1D",
"P  c #825E08",
"I  c #8D6B0A",
"U  c #866608",
"Y  c #946E0A",
"T  c #926C05",
"R  c #96740C",
"E  c #826415",
"W  c #8B6C14",
"Q  c #83641B",
"!  c #8C641D",
"~  c #86691B",
"^  c #8B6C1B",
"/  c #886711",
"(  c #936E1B",
")  c #8D711A",
"_  c #947215",
"`  c #92731B",
"'  c #9B7B1D",
"]  c #9C7819",
"[  c #8F720D",
"{  c #A67E09",
"}  c #A17E1A",
"|  c #805F21",
" . c #846422",
".. c #8D6B24",
"X. c #896926",
"o. c #936C25",
"O. c #956A26",
"+. c #8D7123",
"@. c #937422",
"#. c #9A7424",
"$. c #9C7B23",
"%. c #9A7329",
"&. c #937638",
"*. c #886C32",
"=. c #A27E22",
"-. c #A77627",
";. c #A67E35",
":. c #9D811E",
">. c #AA870B",
",. c #B69A0D",
"<. c #A4841E",
"1. c #AC8A1C",
"2. c #A88517",
"3. c #B18D1B",
"4. c #B48E14",
"5. c #AF901F",
"6. c #BB9513",
"7. c #BE9A16",
"8. c #B4941D",
"9. c #BB951C",
"0. c #B9961A",
"q. c #B0900A",
"w. c #BCA40C",
"e. c #BEA71A",
"r. c #A58323",
"t. c #AB8A21",
"y. c #AA8526",
"u. c #B38E23",
"i. c #B5872D",
"p. c #B49223",
"a. c #BA9524",
"s. c #BC9923",
"d. c #BA942D",
"f. c #B58832",
"g. c #BD9239",
"h. c #AF8332",
"j. c #BFA020",
"k. c #C39C1B",
"l. c #C39D12",
"z. c #C7A50A",
"x. c #D3AF0B",
"c. c #CAB50A",
"v. c #D9B80A",
"b. c #CAA617",
"n. c #D3AA18",
"m. c #DDBB1A",
"M. c #DAB518",
"N. c #C7B11B",
"B. c #E7BB18",
"V. c #C29C23",
"C. c #C29C2A",
"Z. c #C9982E",
"A. c #C18C36",
"S. c #C69735",
"D. c #D19833",
"F. c #C6A124",
"G. c #CAA424",
"H. c #CCA628",
"J. c #D3AD25",
"K. c #D4AC2A",
"L. c #D8AE2B",
"P. c #DBB425",
"I. c #DDBB22",
"U. c #DCB42A",
"Y. c #D3B723",
"T. c #C9A436",
"R. c #D6A935",
"E. c #CEBE2F",
"W. c #E4BA26",
"Q. c #E4BB2B",
"!. c #E9BE2B",
"~. c #E2B828",
"^. c #E6B933",
"/. c #DBC21A",
"(. c #DDC60B",
"). c #E2CA0B",
"_. c #FFDD0F",
"`. c #FFD20D",
"'. c #E2C11F",
"]. c #EFC117",
"[. c #F2C514",
"{. c #F6C913",
"}. c #FCCD13",
"|. c #F1C519",
" X c #F7C91A",
".X c #FFD413",
"XX c #FFDB12",
"oX c #FFD419",
"OX c #FFDC19",
"+X c #F3C60F",
"@X c #FFE013",
"#X c #FFE11B",
"$X c #FFE00F",
"%X c #DCCB35",
"&X c #DDD035",
"*X c #E2C120",
"=X c #ECC22A",
"-X c #EEC226",
";X c #F6C929",
":X c #FFDB24",
">X c #FFD32B",
",X c #FFDB2B",
"<X c #FFD831",
"1X c #F0CC2F",
"2X c #FFE22C",
"3X c #F0E43A",
"4X c #B99748",
"5X c #B0924F",
"6X c #C99943",
"7X c #D49F42",
"8X c #D6AB49",
"9X c #D6B443",
"0X c #D8B85B",
"qX c #C5A94D",
"wX c #E5B748",
"eX c #E4AE47",
"rX c #D9C656",
"tX c #EBC447",
"yX c #E6C658",
"uX c #ECDC53",
"iX c #ECE056",
"pX c #D9CA63",
"aX c #E4C763",
"sX c #E9D479",
"dX c #EEDE6F",
"fX c #F4EA68",
"gX c #EBE16F",
"hX c #EDE597",
"jX c #F3EA8F",
"kX c #F1E9A7",
"lX c #F6F2B9",
"zX c #F2E9A3",
"xX c #F0DE91",
"cX c #F6F2C8",
"vX c #F8F5D5",
"bX c #F6EFC9",
"nX c #FAF8E5",
"mX c #FCFBF4",
"MX c #FEFEFC",
"NX c None",
/* pixels */
"NXNXNXNXNXNXNXNXNXNXNXNXNXNXNXNXNXNXNXNXNXNXNXNXNXNXNXs f g g h F F U F F NXNXNXNXNXNXNXNXNXNXNXNXNXNXNXNXNXNXNXNXNXNXNXNXNXNXNX",
"NXNXNXNXNXNXNXNXNXNXNXNXNXNXNXNXNXNXNXNXNXNXNXl s s 9 w > : * * * * 0 9 r a F I U NXNXNXNXNXNXNXNXNXNXNXNXNXNXNXNXNXNXNXNXNXNXNX",
"NXNXNXNXNXNXNXNXNXNXNXNXNXNXNXNXNXNXNXNXk l j 5 2 2 2 2 6 q 3 5 2 2 * * % % % & 9 g Y d NXNXNXNXNXNXNXNXNXNXNXNXNXNXNXNXNXNXNXNX",
"NXNXNXNXNXNXNXNXNXNXNXNXNXNXNXNXNXNXk j q 3 3 3 j 0 5 3 2 2 % % % % 1 * 2 * & > & % & y g I NXNXNXNXNXNXNXNXNXNXNXNXNXNXNXNXNXNX",
"NXNXNXNXNXNXNXNXNXNXNXNXNXNXNXNXz z 5 3 3 w 3 7 9 H B 2 2 5 w w q q 5 % 1 1 : & * : ; % % : T >.NXNXNXNXNXNXNXNXNXNXNXNXNXNXNXNX",
"NXNXNXNXNXNXNXNXNXNXNXNXNXNXj j 5 4 5 6 6 q ) 9.*Xm.e.n M e w 6 0 w 9 M M i s > % 2 2 ; ; > & i q.>.NXNXNXNXNXNXNXNXNXNXNXNXNXNX",
"NXNXNXNXNXNXNXNXNXNXNXNXNXe w 4 3 5 w M t.I.'.'.m.s.` 3 * 2 2 2 2 2 & & 2 1 2 9 i n > 5 6 l l : > R z.NXNXNXNXNXNXNXNXNXNXNXNXNX",
"NXNXNXNXNXNXNXNXNXNXNXNXw 5 4 w q e 1.I.*XI.8.~ q 2 4 3 3 3 7 2 3 2 2 & 2 & 2 & 2 ; n V N v x l j w P c.NXNXNXNXNXNXNXNXNXNXNXNX",
"NXNXNXNXNXNXNXNXNXNXNXq 4 4 c 5 ) Y.*XI.<.M 2 7 2 7 7 5 6 6 6 j w w w 5 7 3 ; 2 3 2 3 5 L t.%.O.! E x P c.w.NXNXNXNXNXNXNXNXNXNX",
"NXNXNXNXNXNXNXNXNX5 e 4 4 5 z s.*XB.p.M 3 4 5 5 6 j l v v v l l i v v N D C x 6 5 3 3 5 6 J T.yX8Xi.-.! ^ c.,.NXNXNXNXNXNXNXNXNX",
"NXNXNXNXNXNXNXNXNX5 4 5 q m K.*XY.L 7 7 3 6 w l v c 6 5 5 5 6 6 6 > 6 6 6 6 l D S x w 5 7 x O.aXcXkX0XZ.-.-.n.w.NXNXNXNXNXNXNXNX",
"NXNXNXNXNXNXNXNX5 4 q q H U.*Xj.j 7 7 5 9 l l 5 5 5 C $.C.U.=X;X;X!.P.V.} S 6 6 j Z ~ Z c c J f.zXmXnXxXwXD.A./.NXNXNXNXNXNXNXNX",
"NXNXNXNXNXNXNX7 5 q w S I.*X5.5 3 7 w l k 4 4 m t.=X;XK.u.$.Q S V ~ ` t.F.-X-Xa.L : 6  .-.J C X.8XbXMXMXlXfXtX^./.NXNXNXNXNXNXNX",
"NXNXNXNXNXNX4 7 4 q m I.*Xt.3 4 6 y i 6 4 A H.;XF.) e q 6 e w w 6 j w j j w Q 9.-XJ.Q 5 x h.;.X.;.aXnXMXMXnXjXiX^./.NXNXNXNXNXNX",
"NXNXNXNXNX4 5 4 q e J.*X1.5 3 5 j l 4 w p.-X5.z q q H ..A !.C.S <XC.$.U.S o.k 6 l <.-XV.c c f.6X;.7XjXnXMXMXmXjXtXn.c.NXNXNXNXNX",
"NXNXNXNXNX5 7 q q s.*Xj.5 7 6 k l 2 m Y.J.m q M X. .;Xp.j ;XC.w ,Xt.#.,Xl J.~.S V 6 l V.W.V q 5X0XR.yXzXmXMXmXcXuXZ.v.NXNXNXNXNX",
"NXNXNXNX5 5 4 w ` *XY.j 7 5 y l 2 H *Xr.q e m =XH.q u.=Xe ~.!.A ,Xa.i.>Xl >X' ..>X( w > _ !.^ 6 6XpXwXgXlXmXmXlXuXD.1.z.NXNXNXNX",
"NXNXNXNXq 4 7 z Y.'.Q 2 5 9 k 2 A =X+.q $.d.q $.<XJ u.^. .=.@.C Q ~ ^ u.#.>Xb K.L.w a.r.9 V W.^ e qXpXwXuXzXbXzXtXZ.O.w.NXNXNXNX",
"NXNXNX5 7 5 7 t.W.8.3 3 6 l 7 M I.@.4 e +.1X@.e 1X$.m X. . . . . . .Q  . .C Q ~.=.Z ;X' Q c V Q.V x rX9X8XeXdXfXR.i.! ^ ,.NXNXNX",
"NXNXNXj 3 q M I.I.k 7 5 y 5 5 J.y.M F.M q p.=XJ A  .J w e j e j c j j k j C  .Q N H.V.C k C.N ( P.y X.rXi.f.S.uX&X..L l q.NXNXNX",
"NXNXs w 5 5 t.*X<.3 4 6 w 3 t.G.q K K.L.S J M  .m e e c j e c j c j j c j j j j  .Z ( Q p.!.@.6 p.s.; i.T.O.O.E.&X$.v k F 2.NXNX",
"NXNXn 3 6 q I.I.z 4 5 k 3 m W.M 3 M e R.r.A J q x H x w c c j j j j k j j l Q V 6 C S ^ =X} w k w P.Q j T.! Z ' /.b.w s 0 >.NXNX",
"NXNXj 3 w ) /.a.3 3 q q 3 F.:.q J.=X:.q J z H n.OXOXOXW.C j j j j j j N B.:XOXoX|._ j Q C j Q.U.k ( J.: W y.v v N.N.n l & I NXNX",
"NXk 5 3 2 s./.Q 2 5 u 4 H I.q 3 H.K.A S q ) .XOXoXOXOXn.~.z 6 j j j j ~.s.OXOXoXoX}.1.6 S w H.Q.> : J.^ 6 p.l 6 ] z.I > & s I NX",
"NXu 3 q q I.I.q 3 5 j 2 s.r.2 3 3 3 M e n {..X.XoXXXOXw l Z j j w j b b w  XOX.X.X}.{./ 9 A : ; 3 ; ` V.& ( P 6 v 6.R % & % Y NX",
"NXj 2 w G m.0.2 3 6 w q *Xz  .T.+.q M q b.{.}..X.XXXXX^ w j j j j w j w ( XX|.{.}.}.{.n.; k k L R.^ 9 W.k y #.; ; { { ; : # I NX",
"NXw 2 6 ' /.' 2 3 k 2 ~ N.4 +.H.M m 3 q |.{..X.X.XXXXX.Xl w w j w w y v oXoX3.`.`.{.[.[.l ; C & K.y.; a.( , } ; & / R 9 : o d NX",
"NX3 1 2 5./.H 2 5 j 2 t.:.2 q m e e 3 e |.0.N _ {..XXXXXb.w w 9 w j w B.OX4.}.{._ N >.|.V ; : M A % ; ` u.& ( : % f Y j & + i g ",
"0 3 2 2 b.m.M 2 : j 2 j.X.3 2 3 M 3 3 * '.5 5 : V .X.XXX@X_ w j w w 9.OXk.B.`.E > ; ; M.k & ; x * & & V H.* V y & 8 I y % o 8 d ",
"* 2 2 1 Y.m.q 2 q w 3 L.n 2 z +.M 3 * 3 2.5 q : 0 ] _.XXXX.Xn w w _ OXB.b.oX2.: 5 : ; 3.; * & z Q m & j Q.& p Z o : / i + + > d ",
"3 1 3 & M.M.2 2 0 w * U.z H @.* M * 2 3 3 w 5 5 6 5 b.XXXX@XB.9 N oX.X3.XXn.: : : ; w > & & & * z ^ ~ ; ^.: , H @ * F i o + & d ",
"* & q 2 m.M.1 2 q w & ^.H Y.K.e q 2 2 * * : 5 5 6 6 9 {._.@X@Xb.|.@X2.oX{.j > ; ; ; * ; & & & % k p.~.V Q.9 : H @ @ 9 ; O + # h ",
"& 1 5 3 m.M.1 1 q e 1 =X .I.U.z 5 2 2 * : 2 * 5 5 6 > G XX$X@X@X@Xk..XXXV : 5 ; ; & ; & & & & % x G.W.^ !.6 = L o o % + O , $ d ",
"i 2 & % M.m.2 2 > e 1 Q.e ) ) q w & * 2 2 : 2 : : : 6 6 6.XX$X@X@X].XX4.6 : : : ; ; & & & # % @ x C } * !.; = S o + # O O & $ d ",
"a : % % N.v.q % 5 z 2 K.n 2 A ~ z * * 2 * * : 5 5 > 6 6 k @X@X@X@X$X@Xj > 5 ; ; ; & & & % & % 6 Q ~ @ w !.@ , A o o @ O X + , d ",
"r : % : 7.m.M 1 3 j 1 j.Q * * 1 z & % * * 3 ; 5 : 5 > w 4.$XXX@X@XXXXX4.> : : ; ; & & & % & % j % % % N K.# c j O + @ O + . 8 h ",
"NX9 1 0 2.v.G % * m & r.r.& & A k & & 3 2 ; : : : > 6 G XX}.k.OX@X@XXXXXN : : ; & & & % % % & q j % @ ) a.@ S % X X + X # . t a ",
"NX8 @ * W v.:.% 1 m 1 E H.& +.d. .q & * & ; 5 ; 5 > w  XOX1.@X.X{.$X_._.B.> , ; ; & & % % % % A H.r.@ a.` @ Q + X > 8 X $ . d NX",
"NXi < % n v.7.1 1 w w q Q.k n T.d.5 & 2 * * ; 5 > 5 n.OX3.oXXXN u }._.XX_.6.; * ; & % % % @ # t.d. .* I.k # K o + i u X @ . T NX",
"NXi % % & x.x.5 1 3 m & s.' * * & m & * * C : : : ] XXb.B.@X_ > 6 P _._._..X/ ; & & n % % @ e * % % G J.X w l o % i : . + # U NX",
"NXu 0 @ % >.v.E 1 1 J % S U.3 & & 5 n & ) j 5 : N oX].k.#Xk.> 6 6 > >.XX_.XX}.u & & : _ % w 0 % + + G.^ o  .+ O : u % X X p d NX",
"NXNX8 @ * g v.,.o % q M & F.` & & & j M m.; : 6 ].oX1.@XB.9 > > : 5 , B._.`..XM.: % % n.n w o o + B U.@ % | + + u 8 X X . F NXNX",
"NXNXi % & # z.v.k % 2 J % N I.w # & 1 k  XW N n.`.k..XoXN > > 6 > > ; l `._..X`.n.s / [.E # % @ % J.~ + | & O ; y - X # + I NXNX",
"NXNX8 0 + * R v.4.% 1 z m 1 t.s.& r...*  X}..X`.XXXXXX2.> > > : ; : > : 2.XXXX.X}.}.{.[.9 C r.X <.F.O 2 | + o 9 9 + & . t 8 NXNX",
"NXNXNXi o @ * x.v.s % 2 X.3 5 J.' 9 j & 7.}.}..XXXXXoX9 D ` : > > > L V : [.XX.X`.{.+Xn.+ > : G ~.9 o X.@ + % 8 - X + . r NXNXNX",
"NXNXNXr * @ & [ (.z.& 2 e &.# k ~.~ * 6 M 6.[.`.`.XX.X} :XB : > > ; > :X} ].XX`..X{.l.n * + M W.B O m z O + 8 > + X . + 8 NXNXNX",
"NXNXNXNXs o : : z.(.R 3 7 J *.% G W.E j S & ; / B.`.XXXXG.l S L S L l 9.XXXXXX+XI & # m j i I.^ O 6 | + X - 9 & . % X t NXNXNXNX",
"NXNXNXNXr - + * g (.(.A 6 q &.K & E =X' ; ; * : : [ 6.] > : ^ 9 ; ~ ; ; _ 4._ ; % % @ @ G !.` O & ..+ O # 0 : X # . - r NXNXNXNX",
"NXNXNXNXNXa % % & 2.)./.m e M 5X*.< C ~.C.y ; ; : ; : c C.#.Q K.t.=.S C.Q & & & # % & 1.=XG O * o.@ O @ 8 : + + + X h NXNXNXNXNX",
"NXNXNXNXNXu i % q 9 N. X/.A J J 5X&.% 6 V.;X} : ; , : @.^.d.9 2X,XV #.1X=.& $ % % ^ W.J.9 O 6 ..@ O + > > % O + . t 8 NXNXNXNXNX",
"NXNXNXNXNXNXt y & k A &XuX%XO.O.%.6X4X: % V P.;X3.l , ; > ; ' ,X2Xu.& ; & & y ' !.!.W o o m  .+ X + , > # O X X , a NXNXNXNXNXNX",
"NXNXNXNXNXNXNXa : > G #.iXfXdX8X7XA.S.0X*.& & Q G.>X!.V.] Q N t.u.N L _ 9.W.>XP.^ + o : ..x X X + 9 9 $ O $ . $ d NXNXNXNXNXNXNX",
"NXNXNXNXNXNXNXNXf , 6 ! S.kXvXvXhXsX8X;.g.4XJ * & 9 _ V.W.>X,X:X:X:X>XW.k._ w + + ; .. .@ X X & 8 0 $ O & X # d NXNXNXNXNXNXNXNX",
"NXNXNXNXNXNXNXNXNXf y x ` 8XcXmXmXnXxX8X#.L #.i.%.y & ; & # ; 6 > & # # % @ $ m @. .% + X + : 8 0 # O + . + d , NXNXNXNXNXNXNXNX",
"NXNXNXNXNXNXNXNXNXNXT i b a.aXvXMXMXvXxXA.L j y u #.r.%.O.C y , , : k Z o.o.o.j + + + + * 8 8 : % O &   . 8 = NXNXNXNXNXNXNXNXNX",
"NXNXNXNXNXNXNXNXNXNXNXT V L C.sXbXmXmXbXwX-.b w 2 % % ; : v L X.o. .C j + + + + O + ; y i 8 : X X #   + 8 + NXNXNXNXNXNXNXNXNXNX",
"NXNXNXNXNXNXNXNXNXNXNXNXR Y O.S.aXxXxXjXdX9X! c 5 % @ @ + + + + + + + + O + + = r s i i : + . + X   # - NXNXNXNXNXNXNXNXNXNXNXNX",
"NXNXNXNXNXNXNXNXNXNXNXNXNXT { O.-.D.R.D.S.i.y.( N > @ + O + O + + O + : r f g h s i : # X . X . . $ - NXNXNXNXNXNXNXNXNXNXNXNXNX",
"NXNXNXNXNXNXNXNXNXNXNXNXNXNXP { R ! ..] ! L Z l j 8 9 - ; $ & # # $ # t U d f y - X X % = . . + - # NXNXNXNXNXNXNXNXNXNXNXNXNXNX",
"NXNXNXNXNXNXNXNXNXNXNXNXNXNXNXNXU Y v l c v N f : & % @ X X . . . . . & : # O + # + X . . X $ # NXNXNXNXNXNXNXNXNXNXNXNXNXNXNXNX",
"NXNXNXNXNXNXNXNXNXNXNXNXNXNXNXNXNXNXh v i > ; & & % & & % # @ O + + $ X O + + O     . + $ + NXNXNXNXNXNXNXNXNXNXNXNXNXNXNXNXNXNX",
"NXNXNXNXNXNXNXNXNXNXNXNXNXNXNXNXNXNXNXNX: p , & @ + + O . . + . X X .   . . . O X # # # NXNXNXNXNXNXNXNXNXNXNXNXNXNXNXNXNXNXNXNX",
"NXNXNXNXNXNXNXNXNXNXNXNXNXNXNXNXNXNXNXNXNXNXNX$ + + + . .         . . . . X O + X NXNXNXNXNXNXNXNXNXNXNXNXNXNXNXNXNXNXNXNXNXNXNX",
"NXNXNXNXNXNXNXNXNXNXNXNXNXNXNXNXNXNXNXNXNXNXNXNXNXNXNX.               . . NXNXNXNXNXNXNXNXNXNXNXNXNXNXNXNXNXNXNXNXNXNXNXNXNXNXNX"
};
