/* XPM */
static char *result[] = {
/* columns rows colors chars-per-pixel */
"16 16 207 2 ",
"   c #3B2706",
".  c #3C2706",
"X  c #3D2706",
"o  c #3F2A05",
"O  c #412C07",
"+  c #422D07",
"@  c #452E06",
"#  c #452E07",
"$  c #462F07",
"%  c #402B08",
"&  c #432C08",
"*  c #463005",
"=  c #463006",
"-  c #4B3408",
";  c #4C3409",
":  c #4E3608",
">  c #4F3709",
",  c #4D360A",
"<  c #4B340C",
"1  c #4D350C",
"2  c #4D350D",
"3  c #513806",
"4  c #523906",
"5  c #573D06",
"6  c #593F04",
"7  c #513908",
"8  c #533A08",
"9  c #553B0A",
"0  c #533C09",
"q  c #51380D",
"w  c #513A0C",
"e  c #51380E",
"r  c #50390E",
"t  c #50390F",
"y  c #523A0F",
"u  c #533B0F",
"i  c #543B0F",
"p  c #563C0F",
"a  c #573E0F",
"s  c #4C3710",
"d  c #513A10",
"f  c #523B11",
"g  c #533D13",
"h  c #543D11",
"j  c #573E10",
"k  c #543C13",
"l  c #523B16",
"z  c #543D16",
"x  c #593F10",
"c  c #5B4209",
"v  c #5A420A",
"b  c #5C4308",
"n  c #5D4309",
"m  c #5C430A",
"M  c #5D440B",
"N  c #59410C",
"B  c #58400E",
"V  c #58410F",
"C  c #594110",
"Z  c #5A4212",
"A  c #5A4213",
"S  c #5B4313",
"D  c #5C4312",
"F  c #5A4214",
"G  c #5B4214",
"H  c #5A4215",
"J  c #5C4314",
"K  c #5D4514",
"L  c #5E4414",
"P  c #5F4515",
"I  c #5F4717",
"U  c #604505",
"Y  c #674C0A",
"T  c #66490F",
"R  c #70520C",
"E  c #71530E",
"W  c #775A0B",
"Q  c #77580D",
"!  c #614710",
"~  c #604611",
"^  c #614612",
"/  c #624615",
"(  c #614813",
")  c #634913",
"_  c #654B13",
"`  c #664A12",
"'  c #624814",
"]  c #634B17",
"[  c #654914",
"{  c #664A15",
"}  c #664C17",
"|  c #694B14",
" . c #6B4D14",
".. c #6B4D16",
"X. c #6A4E16",
"o. c #6F5215",
"O. c #6F551E",
"+. c #725313",
"@. c #755610",
"#. c #735715",
"$. c #755614",
"%. c #765A16",
"&. c #7B5B14",
"*. c #785D14",
"=. c #7A5E15",
"-. c #765A18",
";. c #765B18",
":. c #765C19",
">. c #795D19",
",. c #7E6017",
"<. c #7F6317",
"1. c #7F6419",
"2. c #8B6A0F",
"3. c #8D710C",
"4. c #90710C",
"5. c #94790D",
"6. c #98780F",
"7. c #806115",
"8. c #806315",
"9. c #826215",
"0. c #816117",
"q. c #836317",
"w. c #8E6D13",
"e. c #8A6917",
"r. c #806018",
"t. c #836619",
"y. c #82671A",
"u. c #856618",
"i. c #86661D",
"p. c #846818",
"a. c #876A1C",
"s. c #8A6B1A",
"d. c #8C6B18",
"f. c #886D1B",
"g. c #8B6C1A",
"h. c #8C6C1B",
"j. c #8A6D1D",
"k. c #8A6E1E",
"l. c #8D6D1E",
"z. c #926E1F",
"x. c #8D7416",
"c. c #8E701B",
"v. c #8F731F",
"b. c #917510",
"n. c #937513",
"m. c #947717",
"M. c #9B7214",
"N. c #967A17",
"B. c #9D7B10",
"V. c #9C7A11",
"C. c #91701B",
"Z. c #91711B",
"A. c #957319",
"S. c #96741F",
"D. c #977B19",
"F. c #94781B",
"G. c #95781B",
"H. c #987C1A",
"J. c #987C1B",
"K. c #9B781F",
"L. c #9D7A1D",
"P. c #9F7D1F",
"I. c #A07C1F",
"U. c #926E24",
"Y. c #906C26",
"T. c #906E28",
"R. c #916E28",
"E. c #937421",
"W. c #9A7C21",
"Q. c #9E7D20",
"!. c #9A772F",
"~. c #A38114",
"^. c #A98413",
"/. c #A4811E",
"(. c #A5821F",
"). c #B28D12",
"_. c #B58E18",
"`. c #B48F1A",
"'. c #A68220",
"]. c #A38024",
"[. c #B28F28",
"{. c #B28F38",
"}. c #AD9135",
"|. c #B79B3E",
" X c #C69D17",
".X c #C19B1E",
"XX c #CAA113",
"oX c #D4A913",
"OX c #D7AD12",
"+X c #DCB212",
"@X c #DCB215",
"#X c #DEB216",
"$X c #E6B917",
"%X c #E9BC16",
"&X c #D9B725",
"*X c #EDC011",
"=X c #F5C711",
"-X c #F2C314",
";X c #F6C813",
":X c #FCCD12",
">X c #C1A562",
",X c #CBB46F",
"<X c #E5CF8F",
"1X c #E6D280",
"2X c #EEDFB0",
"3X c #F6EFB9",
"4X c None",
/* pixels */
"4X4X4X4X4XA C B N M Y 4X4X4X4X4X",
"4X4X4XH } J.p.k f u j T 4.4X4X4X",
"4X4Xz f.G.L / r.0.[ P R.>X.X4X4X",
"4Xl f.1.{ j.Q.l.'.L.C.T.<X3X&X4X",
"4X] F.' v.E.].i.S.K.I.Z.|.1X[.4X",
"S H.G y.W.c.`.X..._.A.P.g.z.N.W ",
"h D.K k.I @X;X|  .$X+X^ h.+.Q n ",
"s m.-.:.g ( ).XX X^.! e #.q.m 7 ",
"r n.;.>.d t x :X-Xp 2 < %.,.% 4 ",
"w b.J a.Z y w.#X*X2.1 u t.~ - 5 ",
"0 3.F <.D ~.%X@.E =XB.V *.i : U ",
"4Xv 5.O.u.V.OX&.$.oX6.=.) ; = 4X",
"4Xc x.}.!.s.9.(./.7.8._ , # 6 4X",
"4X4XR ,X2XY.o.d.e.` a > $ 3 4X4X",
"4X4X4XM.{.U.q + @ b 8 O * 4X4X4X",
"4X4X4X4X4X9 &   . X o 4X4X4X4X4X"
};
