/* XPM */
static char *result[] = {
/* columns rows colors chars-per-pixel */
"32 32 182 2 ",
"   c #362406",
".  c #3A2605",
"X  c #3E2906",
"o  c #3F2908",
"O  c #422C06",
"+  c #442D09",
"@  c #473107",
"#  c #4C3506",
"$  c #47300B",
"%  c #4C340C",
"&  c #4E380B",
"*  c #553C05",
"=  c #50370D",
"-  c #543B0D",
";  c #583E0E",
":  c #4B3511",
">  c #4E3911",
",  c #543C13",
"<  c #593F12",
"1  c #594106",
"2  c #5C420C",
"3  c #574013",
"4  c #5C4313",
"5  c #5D4419",
"6  c #624606",
"7  c #664A06",
"8  c #61470A",
"9  c #644A0A",
"0  c #6A4E0B",
"q  c #6C510C",
"w  c #6F5204",
"e  c #72550A",
"r  c #7A5C0B",
"t  c #775B0C",
"y  c #624613",
"u  c #654A14",
"i  c #6A4D14",
"p  c #624618",
"a  c #624A19",
"s  c #6B4D18",
"d  c #6C5115",
"f  c #6D5219",
"g  c #725315",
"h  c #755914",
"j  c #7A5C14",
"k  c #72541A",
"l  c #745919",
"z  c #7A5D1A",
"x  c #795519",
"c  c #7F630B",
"v  c #7D6216",
"b  c #7D611A",
"n  c #715722",
"m  c #765D27",
"M  c #815E08",
"N  c #825D1A",
"B  c #816205",
"V  c #89670A",
"C  c #886A0C",
"Z  c #926B0C",
"A  c #977A0E",
"S  c #836313",
"D  c #896710",
"F  c #876916",
"G  c #8B6C14",
"H  c #83651B",
"J  c #8A661B",
"K  c #866A1C",
"L  c #8A6C1B",
"P  c #926F1B",
"I  c #8D7510",
"U  c #8E7119",
"Y  c #9C7913",
"T  c #94741B",
"R  c #96781F",
"E  c #9C7B1C",
"W  c #A17F1C",
"Q  c #A07D13",
"!  c #846620",
"~  c #8E6927",
"^  c #876626",
"/  c #8F7020",
"(  c #937421",
")  c #997720",
"_  c #9C7C21",
"`  c #856930",
"'  c #A47D24",
"]  c #A57D2F",
"[  c #A07F36",
"{  c #AB8408",
"}  c #AB910B",
"|  c #B79D0E",
" . c #BB9B0B",
".. c #BC950F",
"X. c #AE8E16",
"o. c #A4831C",
"O. c #A9871E",
"+. c #AC891B",
"@. c #B38E1F",
"#. c #B58F13",
"$. c #B69010",
"%. c #BA9314",
"&. c #BD9A13",
"*. c #B6951F",
"=. c #B6981E",
"-. c #BE9F1D",
";. c #BFA30A",
":. c #BFA01E",
">. c #A38322",
",. c #A98622",
"<. c #AC8A22",
"1. c #AC822C",
"2. c #B28D22",
"3. c #B38D28",
"4. c #B69021",
"5. c #BA9523",
"6. c #BF982B",
"7. c #AA853C",
"8. c #B88937",
"9. c #B79238",
"0. c #BB9931",
"q. c #C39C15",
"w. c #C99F13",
"e. c #C5A80C",
"r. c #CCA414",
"t. c #C7A51B",
"y. c #D3AB13",
"u. c #D6AD18",
"i. c #D6AB14",
"p. c #DCB316",
"a. c #DCB219",
"s. c #DCBB1C",
"d. c #D5B41A",
"f. c #E0B515",
"g. c #E2B718",
"h. c #E7BC14",
"j. c #C39B24",
"k. c #CD973A",
"l. c #C39132",
"z. c #CBA227",
"x. c #C2AF20",
"c. c #CBAB20",
"v. c #CFA729",
"b. c #D3B321",
"n. c #DAB22B",
"m. c #DFB836",
"M. c #E3B82A",
"N. c #DBC618",
"B. c #FFDD0F",
"V. c #EFC115",
"C. c #EEC119",
"Z. c #F3C415",
"A. c #FBCC13",
"S. c #F1C31B",
"D. c #F7C91E",
"F. c #FFD313",
"G. c #FFDB12",
"H. c #FFDB19",
"J. c #FFE112",
"K. c #AE9645",
"L. c #C59C43",
"P. c #C4AA44",
"I. c #D1AC46",
"U. c #DEB540",
"Y. c #C9A854",
"T. c #D3AE52",
"R. c #D9B96C",
"E. c #EBDF4D",
"W. c #E4C554",
"Q. c #E7D259",
"!. c #E0C465",
"~. c #E2C97C",
"^. c #F5E69A",
"/. c #F2ECAA",
"(. c #F5EBB9",
"). c #F5EDC5",
"_. c #F9F4C2",
"`. c #F8F7D2",
"'. c #FAF8D8",
"]. c #FBFAEE",
"[. c #FDFDF8",
"{. c None",
/* pixels */
"{.{.{.{.{.{.{.{.{.{.{.{.q 8 9 2 0 0 e c {.{.{.{.{.{.{.{.{.{.{.{.",
"{.{.{.{.{.{.{.{.{.u 5 , , : > > : & % # 2 q r {.{.{.{.{.{.{.{.{.",
"{.{.{.{.{.{.{.{.3 , , z o.v 3 5 3 3 3 3 % % = r { {.{.{.{.{.{.{.",
"{.{.{.{.{.{.5 , 3 U b.-.U u : : > % % & 2 u i y i } {.{.{.{.{.{.",
"{.{.{.{.{., , n c.=.f , , y y y y y y 3 , , N 9.' g | {.{.{.{.{.",
"{.{.{.{., , K b.H , 4 y 4 k T >.o.T k u s s p 7.(.^.l.c.{.{.{.{.",
"{.{.{., , K b.f , y 5 >.5.' H f d v E 4.O.g ~ ~ R.[._.Q.C.{.{.{.",
"{.{.{., l b.f 3 4 b 5.l f <.<.) M.z.T J j 2.J [ L.^.[.`.m.e.{.{.",
"{.{., 5 x.b 3 4 K >.b / ,.v.) ) 2.j.j.) 2.F T T K.W./.).m.X.{.{.",
"{.3 , U =.> 4 b o.z >.( ' k n k k k x ) T @.H E J P.k.Q.0.N } {.",
"{.5 , b.f 3 5 2.5 5.! l f p y y y p s k k J z.i O.x 1.' x.i C {.",
"{., b :.: 3 >.a n.m k d.H.D.K y y J h.H.g.j s n.i W T i &.d 8 {.",
"y , o.U & 3 <.b 5 a t.F.G.q.i 4 y s %.A.A.y.y y N o.0 g D t % V ",
"3 > :.d 3 l b / a 3 h.&.F.F.j 4 < S D.h.q.f.8 p / j j x 8 j + e ",
"& : d., 3 U a 5 5 > L 3 Y B.V.y i S.f.Q - G - 4 y 4 T i = t O 7 ",
": > s.: 4 R U K 3 & 3 > , r.B.r.f.a.r.- = - % % H L W i + 9 O 6 ",
"& : d.: 4 R R K , : % , ; y A.J.Z.Z.y - % % % $ K T W y O O + 6 ",
"2 % y.3 4 U 4 s < : = , - ; r.G.G.r.- - % % $ - u ; U u o O O 7 ",
"1 : | i 5 f v ! y % = - < G D.A.G.G.S = % % @ 3 H h h y + + O w ",
"9 $ A I > 3 O.l k % < - i h.h.Y G B.A.2 % & $ s l o.% 4 * # O M ",
"{.& q ;.$ 5 R 2 : 5 G ; i.a.w.; ; ..B.y.# N 2 $ & E p O 8 O * {.",
"{.2 @ ;.u 5 5 +.y y p.y.A.Z.4 ; ; ; Z.F.r.y.u 2 o.- y $ - + 7 {.",
"{.8 $ c  .% n h T - %.A.F.q.W - - T #.F.A.q.@ F j a O ; O O 1 {.",
"{.{.1 % e.I 5 m L E 4 2 $.p.j x g e p.%.1 = G U 4 - # # O * {.{.",
"{.{.{.& d N.K ^ ` x 4.u = i j.2.*.3.g $ ; +.v 4 , + = O @ {.{.{.",
"{.{.{.7 ; _ E.K.l.7.s O.*.P g 2.5.i G *.O.; s - @ - O O 7 {.{.{.",
"{.{.{.{.7 g Y.'.(.T.] ^ i j W +.X.Q j ; s u O # * O O 7 {.{.{.{.",
"{.{.{.{.{.B J ~.].).8.y i g g g g s s < O # 1 = O O # {.{.{.{.{.",
"{.{.{.{.{.{.Z ' T.!.I.J ; + . O O O * 6 0 1 + X O # {.{.{.{.{.{.",
"{.{.{.{.{.{.{.{.Z N x g ; = + O O % 7 - @ X O + {.{.{.{.{.{.{.{.",
"{.{.{.{.{.{.{.{.{.q 2 - $ O O O O O . O X O @ {.{.{.{.{.{.{.{.{.",
"{.{.{.{.{.{.{.{.{.{.{.{.O .       . . . {.{.{.{.{.{.{.{.{.{.{.{."
};
