<?xml version="1.0" standalone="no"?>
<!DOCTYPE svg PUBLIC "-//W3C//DTD SVG 20010904//EN"
 "http://www.w3.org/TR/2001/REC-SVG-20010904/DTD/svg10.dtd">
<svg version="1.0" xmlns="http://www.w3.org/2000/svg"
 width="1024.000000pt" height="1024.000000pt" viewBox="0 0 1024.000000 1024.000000"
 preserveAspectRatio="xMidYMid meet">
<metadata>
Created by potrace 1.16, written by Peter Selinger 2001-2019
</metadata>
<g transform="translate(0.000000,1024.000000) scale(0.100000,-0.100000)"
fill="#000000" stroke="none">
<path d="M0 5120 l0 -5120 5120 0 5120 0 0 5120 0 5120 -5120 0 -5120 0 0
-5120z m5050 3980 c0 -6 82 -10 226 -10 213 0 310 -10 325 -32 3 -5 43 -11 89
-14 87 -5 104 -10 95 -23 -2 -5 27 -11 67 -13 48 -4 73 -10 79 -20 6 -10 27
-15 66 -16 69 -2 113 -11 113 -21 0 -5 24 -11 53 -14 28 -4 57 -13 62 -20 6
-8 31 -17 58 -21 26 -4 47 -11 47 -15 0 -4 25 -14 55 -21 30 -7 55 -17 55 -21
0 -7 28 -15 84 -23 11 -1 22 -8 24 -14 2 -7 11 -12 21 -12 9 0 27 -9 39 -20
12 -11 27 -20 34 -20 8 0 21 -9 31 -20 9 -11 28 -20 42 -20 16 0 25 -6 25 -15
0 -10 10 -15 30 -15 19 0 33 -7 40 -20 6 -11 14 -19 18 -19 27 4 52 -3 52 -16
0 -8 7 -15 15 -15 9 0 18 -7 21 -15 4 -8 12 -15 20 -15 8 0 14 -4 14 -10 0 -5
9 -10 20 -10 11 0 20 -7 20 -15 0 -8 9 -15 20 -15 11 0 20 -7 20 -15 0 -8 14
-17 35 -21 20 -3 35 -12 35 -20 0 -8 7 -14 15 -14 9 0 18 -7 21 -15 3 -8 21
-17 40 -21 19 -3 34 -12 34 -20 0 -8 5 -14 11 -14 7 0 22 -11 35 -25 13 -14
32 -25 44 -25 11 0 20 -7 20 -15 0 -8 7 -15 16 -15 9 0 18 -9 21 -20 3 -11 14
-20 24 -20 11 0 19 -7 19 -15 0 -8 7 -15 15 -15 8 0 15 -6 15 -14 0 -15 21
-26 51 -26 11 0 19 -7 19 -16 0 -9 9 -18 20 -21 11 -3 20 -11 20 -18 0 -7 9
-15 20 -18 11 -3 20 -13 20 -22 0 -11 5 -15 14 -12 9 4 17 -2 21 -14 4 -10 13
-19 21 -19 8 0 14 -7 14 -15 0 -9 12 -20 26 -25 17 -7 24 -16 21 -25 -4 -9 -1
-12 7 -9 7 3 23 -6 37 -19 13 -13 32 -26 42 -30 9 -3 17 -13 17 -22 0 -8 7
-15 15 -15 8 0 15 -6 15 -14 0 -7 9 -16 20 -19 11 -3 20 -12 20 -21 0 -9 6
-16 14 -16 8 0 17 -12 21 -27 3 -16 24 -41 45 -58 22 -16 39 -35 40 -41 0 -7
7 -14 15 -18 8 -3 15 -12 15 -21 0 -8 5 -15 11 -15 18 0 59 -43 59 -62 0 -10
6 -18 14 -18 8 0 17 -12 21 -27 3 -15 15 -33 26 -41 11 -7 17 -17 14 -22 -3
-4 4 -10 14 -13 11 -3 22 -17 26 -35 3 -17 13 -33 21 -36 8 -3 14 -12 14 -21
0 -8 7 -15 15 -15 8 0 15 -6 16 -12 2 -34 9 -52 23 -60 9 -5 16 -16 16 -23 0
-8 7 -15 15 -15 8 0 16 -4 16 -10 1 -5 3 -14 4 -20 1 -5 3 -17 4 -25 0 -8 7
-15 15 -15 16 0 29 -27 20 -41 -3 -5 2 -9 11 -9 9 0 18 -12 22 -31 3 -17 12
-33 19 -36 8 -3 14 -14 14 -24 0 -10 5 -19 11 -19 6 0 9 -7 5 -15 -3 -9 0 -15
9 -15 8 0 16 -7 16 -15 1 -8 3 -19 4 -25 1 -5 3 -14 4 -20 0 -5 7 -10 15 -10
8 0 17 -15 20 -34 4 -19 13 -37 21 -40 9 -3 15 -18 15 -35 0 -16 6 -31 14 -34
8 -3 18 -22 22 -41 3 -21 12 -36 20 -36 12 0 20 -33 15 -62 0 -5 6 -8 14 -8 8
0 16 -6 16 -12 1 -7 3 -24 4 -37 1 -13 7 -26 13 -30 5 -3 15 -26 22 -51 6 -25
18 -52 25 -60 7 -8 16 -36 20 -62 5 -31 12 -48 21 -48 10 0 14 -15 14 -55 0
-40 4 -55 14 -55 10 0 16 -20 21 -67 4 -37 13 -72 21 -78 8 -6 14 -34 15 -77
1 -45 6 -68 14 -68 14 0 25 -65 25 -141 0 -37 4 -49 15 -49 22 0 22 -1085 0
-1098 -11 -6 -17 -33 -21 -97 -7 -127 -7 -125 -21 -125 -9 0 -13 -27 -15 -93
-2 -75 -6 -92 -18 -91 -11 1 -16 -10 -16 -40 -2 -126 -4 -136 -21 -136 -15 0
-18 -8 -15 -56 4 -49 2 -56 -17 -61 -11 -3 -19 -8 -16 -12 8 -14 -18 -91 -30
-91 -7 0 -13 -6 -12 -12 1 -46 -5 -79 -18 -92 -8 -8 -15 -29 -15 -46 0 -22 -6
-33 -21 -38 -11 -5 -20 -11 -20 -15 5 -41 -1 -58 -21 -66 -13 -5 -22 -11 -20
-15 1 -3 2 -17 2 -31 0 -18 -4 -23 -15 -19 -15 6 -20 -9 -16 -48 1 -11 -7 -20
-21 -23 -19 -5 -24 -12 -22 -36 1 -18 -3 -32 -12 -36 -8 -3 -14 -10 -14 -17 0
-6 -9 -19 -20 -29 -11 -9 -20 -23 -20 -32 0 -8 -9 -22 -19 -32 -11 -10 -21
-31 -23 -48 -2 -22 -8 -29 -20 -27 -12 2 -16 -2 -12 -11 7 -18 -23 -44 -37
-30 -13 13 1 73 17 73 8 0 14 9 14 20 0 10 6 23 13 27 13 8 27 32 83 148 16
33 32 62 37 63 4 2 7 14 7 27 0 33 10 55 25 55 14 0 25 31 25 71 0 15 7 29 15
33 8 3 15 12 15 20 0 7 6 16 14 19 9 4 17 29 21 72 5 42 13 69 21 72 9 3 14
22 14 54 0 35 5 51 15 55 8 3 17 21 21 40 3 19 12 34 20 34 8 0 15 18 20 48 3
26 10 52 14 57 8 10 14 56 25 187 5 52 11 78 21 82 8 3 14 19 14 35 0 37 10
62 21 55 5 -3 9 4 9 15 0 12 6 21 13 22 9 0 9 2 -1 6 -6 2 -10 9 -6 14 3 5 7
28 8 50 2 23 8 44 13 48 15 10 16 41 17 515 0 406 -2 460 -16 470 -8 6 -19 35
-23 64 -4 32 -12 52 -20 52 -8 0 -14 19 -17 51 -3 28 -11 54 -17 58 -7 5 -16
45 -20 89 -5 45 -13 88 -18 94 -6 7 -13 47 -17 87 -4 41 -13 82 -20 90 -8 9
-18 29 -22 44 -3 16 -13 31 -20 34 -8 3 -14 17 -14 32 0 15 -6 35 -14 46 -7
11 -16 60 -19 110 -5 64 -11 93 -22 101 -8 6 -15 18 -15 27 0 8 -7 17 -14 20
-8 3 -18 22 -22 41 -3 21 -12 36 -20 36 -8 0 -14 6 -14 13 0 7 -8 28 -19 47
-10 19 -21 52 -25 73 -4 21 -14 41 -22 44 -7 3 -14 12 -14 19 0 8 -7 17 -15
20 -9 4 -15 19 -15 35 0 17 -6 32 -14 35 -8 3 -18 19 -21 35 -4 16 -12 32 -19
36 -7 5 -19 25 -25 46 -7 20 -17 37 -22 37 -5 0 -9 6 -9 13 0 7 -9 20 -20 30
-11 9 -20 23 -20 31 0 8 -16 32 -35 53 -20 21 -38 48 -41 61 -4 12 -12 22 -20
22 -8 0 -14 7 -14 16 0 9 -9 18 -20 21 -11 3 -20 11 -20 19 0 13 -54 81 -114
145 -19 20 -38 48 -42 63 -3 14 -10 26 -14 26 -5 0 -11 9 -15 19 -3 10 -16 22
-29 25 -12 3 -28 18 -35 32 -15 34 -52 74 -68 74 -7 0 -13 7 -13 15 0 8 -5 15
-10 15 -6 0 -16 11 -22 25 -6 14 -17 25 -25 25 -7 0 -13 7 -13 15 0 8 -9 15
-20 15 -11 0 -20 5 -20 11 0 12 -46 59 -57 59 -11 0 -53 43 -53 54 0 6 -25 24
-55 41 -30 16 -55 35 -55 42 0 7 -6 13 -13 13 -7 0 -20 9 -30 20 -9 11 -23 20
-32 20 -8 0 -19 9 -25 20 -6 11 -15 20 -21 20 -10 0 -17 5 -63 45 -16 14 -32
25 -35 25 -4 0 -22 16 -41 35 -19 19 -42 35 -50 35 -8 0 -24 7 -34 15 -11 8
-28 15 -38 15 -10 0 -18 7 -18 15 0 9 -12 21 -27 28 -16 6 -32 17 -36 24 -4 7
-17 13 -27 13 -11 0 -20 6 -20 14 0 8 -13 17 -29 21 -16 3 -35 13 -42 21 -6 8
-18 14 -26 14 -7 0 -16 6 -19 14 -3 8 -18 18 -34 21 -16 3 -31 13 -34 21 -3 8
-19 14 -36 14 -17 0 -33 6 -36 14 -3 8 -18 18 -34 21 -15 3 -45 15 -66 26 -21
10 -43 19 -50 19 -6 0 -17 6 -23 14 -7 8 -30 17 -52 21 -21 4 -39 10 -39 14 0
5 -61 11 -136 13 -111 5 -139 9 -146 21 -5 9 -24 19 -43 23 -18 3 -36 12 -38
19 -3 7 -28 15 -56 19 -27 4 -53 11 -56 16 -3 6 -25 10 -48 10 -23 0 -82 7
-132 16 -49 8 -131 21 -182 28 -51 7 -98 17 -105 23 -7 6 -49 16 -92 23 -44 6
-87 16 -95 20 -48 24 -137 34 -301 32 -189 -2 -257 -5 -280 -14 -8 -4 -42 -9
-74 -12 -32 -2 -64 -10 -69 -15 -6 -6 -23 -11 -37 -11 -15 0 -35 -9 -45 -20
-20 -23 -55 -26 -74 -7 -10 10 -14 9 -22 -5 -7 -14 -23 -18 -60 -18 -35 0 -51
-4 -55 -15 -7 -17 -44 -21 -44 -5 0 6 -7 10 -15 10 -8 0 -15 -4 -15 -9 0 -5
-34 -12 -75 -16 -41 -4 -75 -11 -75 -15 0 -4 -30 -10 -66 -13 -39 -4 -74 -13
-84 -22 -10 -9 -35 -18 -56 -22 -22 -3 -43 -11 -49 -18 -5 -6 -31 -15 -57 -19
-27 -4 -48 -11 -48 -17 0 -5 -42 -9 -92 -9 -131 0 -198 -9 -198 -27 0 -8 -9
-17 -19 -20 -11 -3 -22 -16 -25 -29 -7 -26 -25 -31 -44 -12 -9 9 -16 7 -32
-10 -14 -15 -33 -22 -56 -22 -22 0 -37 -6 -40 -15 -4 -8 -14 -15 -23 -15 -9 0
-24 -9 -34 -20 -9 -11 -23 -20 -32 -20 -8 0 -19 -9 -25 -20 -6 -11 -20 -20
-30 -20 -11 0 -20 -7 -20 -15 0 -8 -9 -15 -19 -15 -10 0 -44 -24 -74 -54 -45
-44 -63 -56 -100 -61 -37 -6 -47 -12 -57 -35 -8 -19 -22 -31 -40 -35 -16 -4
-30 -14 -33 -26 -4 -13 -14 -19 -34 -19 -21 0 -33 -7 -42 -24 -7 -13 -25 -30
-40 -37 -14 -8 -40 -29 -57 -46 -17 -18 -36 -33 -43 -33 -6 0 -11 -4 -11 -8 0
-4 -13 -15 -29 -25 -16 -9 -31 -28 -35 -41 -4 -15 -16 -26 -33 -31 -15 -3 -41
-22 -59 -41 -18 -19 -37 -34 -43 -34 -6 0 -11 -7 -11 -15 0 -9 -8 -19 -17 -22
-26 -10 -63 -45 -63 -60 0 -7 -5 -13 -11 -13 -11 0 -99 -88 -99 -100 0 -3 -16
-14 -35 -23 -22 -10 -35 -24 -35 -36 0 -10 -9 -21 -20 -24 -13 -3 -20 -14 -20
-29 0 -15 -19 -39 -56 -73 -47 -41 -55 -54 -52 -79 3 -26 -1 -31 -31 -38 -20
-6 -35 -17 -38 -29 -3 -10 -9 -19 -14 -19 -5 0 -15 -16 -23 -35 -8 -19 -20
-35 -25 -35 -6 0 -11 -7 -11 -15 0 -9 -6 -18 -14 -21 -8 -3 -18 -19 -21 -35
-4 -16 -12 -32 -18 -36 -16 -10 -30 -34 -69 -115 -18 -37 -38 -68 -45 -68 -7
0 -15 -15 -19 -34 -3 -19 -12 -37 -19 -39 -6 -3 -15 -24 -18 -46 -3 -22 -12
-48 -21 -56 -9 -9 -16 -21 -16 -26 0 -6 -7 -17 -15 -25 -8 -9 -15 -26 -15 -40
0 -14 -7 -27 -15 -30 -8 -3 -20 -25 -26 -48 -6 -22 -16 -48 -22 -56 -28 -36
-37 -64 -48 -152 -6 -51 -15 -94 -20 -96 -11 -4 -59 -106 -59 -125 0 -8 -6
-17 -14 -20 -8 -3 -16 -30 -21 -74 -4 -37 -11 -70 -16 -73 -4 -3 -11 -48 -15
-100 -4 -52 -11 -100 -16 -106 -4 -6 -6 -18 -3 -26 3 -8 -1 -21 -10 -28 -8 -7
-15 -21 -15 -31 0 -10 -8 -26 -19 -36 -14 -13 -20 -39 -25 -103 -4 -46 -10
-87 -15 -90 -4 -3 -10 -36 -12 -75 -7 -118 2 -649 11 -660 4 -5 11 -41 14 -80
10 -110 16 -135 30 -135 15 0 26 -30 26 -71 0 -15 7 -32 15 -39 11 -9 15 -32
15 -79 0 -36 5 -82 11 -101 6 -19 15 -66 19 -105 12 -91 24 -130 65 -208 8
-16 15 -35 15 -43 0 -8 6 -14 14 -14 13 0 26 -48 26 -100 0 -14 9 -43 20 -65
11 -22 20 -47 20 -57 0 -10 6 -21 14 -24 8 -3 17 -21 20 -40 4 -19 11 -34 15
-34 5 0 12 -15 15 -34 4 -19 13 -37 21 -40 9 -3 15 -19 15 -39 0 -19 9 -46 20
-60 11 -14 20 -31 20 -39 0 -7 9 -21 20 -31 11 -9 20 -25 20 -36 0 -10 7 -21
15 -25 8 -3 15 -18 15 -33 0 -17 8 -33 20 -41 11 -7 20 -19 20 -27 0 -8 9 -23
20 -32 11 -10 20 -28 20 -41 0 -12 7 -25 15 -28 8 -4 15 -14 15 -24 0 -10 7
-20 14 -23 8 -3 18 -22 22 -41 4 -22 12 -36 21 -36 8 0 17 -9 20 -20 3 -11 12
-20 19 -20 8 0 14 -6 14 -14 0 -8 6 -16 14 -19 8 -3 17 -19 21 -35 3 -17 13
-33 21 -36 8 -3 14 -12 14 -21 0 -8 5 -15 11 -15 14 0 53 -41 62 -64 4 -9 13
-16 22 -16 8 0 15 -8 15 -18 0 -10 18 -38 40 -61 22 -23 40 -46 40 -51 0 -6 7
-10 15 -10 8 0 15 -9 15 -21 0 -11 4 -18 9 -14 6 3 15 -4 21 -15 6 -11 7 -20
3 -21 -4 0 3 -5 16 -10 14 -5 21 -15 18 -23 -4 -9 3 -16 19 -20 13 -4 24 -11
24 -16 0 -6 5 -10 11 -10 14 0 59 -47 59 -61 0 -5 -9 -9 -19 -9 -15 0 -18 5
-14 21 5 18 3 20 -16 14 -15 -5 -21 -2 -21 10 0 8 -8 19 -17 22 -10 4 -22 13
-26 20 -5 7 -12 11 -18 8 -5 -4 -12 2 -16 12 -4 10 -15 24 -25 31 -10 7 -16
18 -13 23 4 5 -1 9 -9 9 -16 0 -39 33 -30 43 3 3 -3 4 -13 3 -10 0 -18 6 -18
14 0 8 -8 17 -18 20 -10 3 -18 10 -18 15 0 6 -9 13 -20 17 -10 4 -19 16 -19
27 0 14 -5 19 -15 15 -13 -6 -20 6 -16 29 0 4 -7 7 -18 7 -10 0 -21 9 -24 20
-3 11 -11 19 -18 18 -7 -2 -14 3 -15 10 -1 6 -2 17 -3 22 0 6 -7 10 -15 10 -8
0 -17 13 -21 29 -4 17 -14 31 -27 34 -12 3 -17 10 -13 17 4 7 -2 14 -14 17
-12 3 -21 13 -21 24 0 11 -7 19 -15 19 -8 0 -15 9 -15 20 0 11 -7 20 -15 20
-17 0 -39 46 -30 61 4 5 -1 6 -9 3 -11 -4 -19 2 -26 20 -5 14 -14 26 -19 26
-5 0 -12 13 -16 29 -3 16 -13 32 -21 35 -8 3 -14 14 -14 25 0 10 -9 21 -20 24
-14 3 -20 14 -20 31 0 15 -7 29 -15 32 -8 3 -17 21 -21 40 -3 19 -12 34 -20
34 -8 0 -14 9 -14 20 0 12 -7 20 -16 20 -10 0 -14 6 -10 15 3 8 1 15 -4 15 -6
0 -10 9 -10 20 0 11 -6 20 -14 20 -8 0 -17 15 -20 34 -4 19 -13 37 -21 40 -8
3 -15 17 -15 31 0 14 -9 33 -20 42 -14 12 -20 30 -20 60 0 30 -4 43 -14 43
-15 0 -26 21 -26 52 0 12 -6 26 -14 32 -8 6 -17 33 -19 59 -2 27 -8 52 -14 55
-6 4 -16 34 -23 67 -7 33 -17 63 -22 66 -5 3 -12 40 -15 82 -4 57 -10 77 -20
77 -8 0 -13 6 -12 13 5 24 -13 137 -21 132 -11 -7 -20 47 -20 116 0 46 -3 59
-15 59 -13 0 -15 76 -15 625 0 549 2 625 15 625 17 0 17 -1 15 102 -1 62 2 78
16 86 15 9 18 20 23 125 0 15 7 27 15 27 10 0 15 21 18 81 3 44 9 84 15 87 6
4 16 32 23 62 7 30 18 58 24 62 5 4 11 17 11 30 3 67 6 78 19 78 9 0 16 18 21
55 4 34 11 54 18 52 7 -1 13 13 15 36 3 29 7 37 23 37 11 0 18 4 15 8 -8 14
10 67 23 65 6 -2 11 10 11 26 0 37 10 62 21 56 4 -3 11 10 15 30 4 23 12 35
23 35 11 0 17 10 18 33 2 17 8 36 15 42 7 5 19 22 25 38 7 15 17 27 23 27 5 0
10 9 10 20 0 11 7 23 15 26 8 3 17 21 21 40 3 19 12 34 19 34 7 0 16 16 19 35
4 21 13 35 21 35 8 0 15 9 15 20 0 11 6 20 14 20 8 0 17 13 21 30 4 16 12 33
19 37 7 5 15 16 19 26 3 9 13 17 22 17 8 0 15 9 15 20 0 11 7 20 15 20 8 0 17
14 21 35 3 20 12 35 20 35 8 0 14 7 14 16 0 9 9 18 20 21 11 3 20 12 20 19 0
8 9 14 20 14 12 0 17 5 14 13 -2 7 7 23 21 35 14 12 25 29 25 37 0 8 5 15 10
15 6 0 15 11 20 25 5 14 16 25 25 25 8 0 15 6 15 13 0 15 44 57 59 57 6 0 11
7 11 15 0 7 6 18 13 22 8 4 16 16 20 26 3 9 13 17 22 17 8 0 15 6 15 13 0 15
44 57 59 57 6 0 10 5 9 12 -2 7 7 17 19 22 12 6 24 19 27 29 3 13 10 17 20 14
10 -4 13 -1 9 9 -4 10 2 17 16 21 11 3 21 10 21 15 0 12 87 98 99 98 5 0 11 9
14 20 3 12 14 20 27 20 12 0 18 4 15 11 -4 6 2 13 14 16 12 3 21 11 21 18 0 7
15 16 34 19 22 4 36 13 39 26 3 11 12 20 21 20 9 0 16 7 16 15 0 8 7 15 15 15
8 0 15 4 15 10 0 5 16 16 35 24 19 8 38 22 41 31 3 8 13 15 20 15 8 0 17 7 20
15 4 9 19 15 36 15 22 0 31 6 35 21 3 11 11 18 18 15 7 -2 15 4 18 14 3 12 18
21 41 25 19 4 34 12 33 18 -1 6 8 13 21 15 12 2 22 10 22 18 0 8 9 14 20 14
11 0 20 5 20 10 0 6 7 10 15 10 8 0 15 7 15 16 0 11 6 15 20 11 12 -3 20 0 20
8 0 11 24 24 53 29 4 0 12 8 17 16 9 15 13 16 50 19 11 0 20 7 20 15 0 8 15
17 34 20 19 4 37 13 40 21 3 8 14 15 24 15 11 0 31 9 45 20 14 11 35 20 46 20
12 0 24 6 27 14 3 8 23 17 45 21 21 4 39 10 39 15 0 4 24 14 53 20 28 7 55 17
58 22 3 5 26 12 50 15 24 3 47 12 52 19 4 7 23 16 42 20 19 3 35 10 35 15 0 7
40 16 114 23 15 2 32 9 36 15 4 7 38 15 76 18 38 3 71 9 74 13 8 13 82 28 144
29 33 0 62 4 65 9 16 23 113 32 345 32 157 0 246 4 246 10 0 6 32 10 75 10 43
0 75 -4 75 -10z m202 -291 c135 -1 188 -5 192 -14 2 -7 37 -14 85 -18 45 -4
91 -11 102 -18 12 -6 48 -15 82 -19 33 -5 63 -14 67 -19 3 -6 28 -14 56 -17
27 -4 61 -13 76 -20 15 -8 47 -14 72 -14 51 0 111 -18 202 -61 34 -16 71 -29
82 -29 12 0 22 -4 22 -9 0 -5 18 -11 39 -15 22 -3 41 -11 43 -18 2 -6 31 -13
66 -16 48 -3 65 -9 73 -23 5 -11 16 -19 24 -19 8 0 15 -4 15 -9 0 -5 16 -15
35 -22 19 -7 35 -16 35 -21 0 -4 16 -10 35 -14 19 -3 35 -10 35 -15 0 -5 20
-14 44 -20 27 -7 57 -24 77 -45 22 -23 42 -34 61 -34 16 0 31 -7 34 -15 4 -8
13 -15 20 -15 8 0 17 -7 20 -15 3 -8 22 -19 42 -26 21 -6 48 -24 62 -38 14
-15 37 -32 53 -39 15 -6 27 -16 27 -22 0 -5 5 -10 12 -10 6 0 18 -7 27 -15 48
-47 90 -79 119 -91 17 -8 32 -19 32 -24 0 -6 6 -10 14 -10 7 0 24 -16 37 -35
13 -19 44 -49 69 -67 25 -18 49 -38 53 -45 4 -7 12 -13 17 -13 11 0 130 -113
130 -124 0 -10 90 -96 101 -96 5 0 9 -5 9 -11 0 -11 32 -55 65 -90 8 -9 15
-21 15 -27 0 -7 7 -12 15 -12 8 0 15 -7 15 -16 0 -9 9 -18 20 -21 11 -3 20
-11 20 -19 0 -7 9 -18 20 -24 11 -6 20 -19 20 -30 0 -11 9 -24 20 -30 11 -6
20 -15 20 -21 0 -6 15 -25 34 -42 18 -18 36 -41 39 -52 4 -11 17 -32 31 -46
13 -14 29 -42 37 -62 7 -20 16 -37 20 -37 4 0 12 -12 18 -27 15 -37 37 -74 48
-82 16 -11 63 -99 63 -119 0 -11 6 -25 14 -31 8 -7 18 -26 21 -42 4 -16 10
-29 15 -29 5 0 14 -16 20 -35 6 -19 15 -35 19 -35 10 0 51 -105 51 -130 0 -9
9 -29 20 -43 11 -14 20 -39 20 -55 0 -17 6 -32 15 -36 8 -3 15 -16 15 -29 0
-13 9 -34 20 -47 11 -13 20 -32 20 -44 0 -12 7 -34 15 -49 8 -16 18 -65 21
-110 4 -45 12 -95 19 -112 7 -16 16 -48 20 -69 3 -21 12 -48 19 -60 27 -43 45
-158 56 -366 6 -118 16 -234 21 -257 12 -54 12 -168 -1 -213 -5 -19 -14 -124
-20 -232 -5 -108 -14 -208 -19 -222 -6 -14 -13 -60 -17 -103 -4 -54 -15 -96
-35 -139 -16 -34 -33 -91 -38 -128 -5 -37 -14 -73 -19 -79 -5 -7 -13 -39 -17
-72 -4 -33 -15 -73 -25 -90 -10 -16 -21 -45 -25 -62 -3 -18 -11 -33 -16 -33
-5 0 -9 -8 -9 -19 0 -10 -6 -24 -14 -30 -8 -7 -18 -31 -21 -54 -4 -23 -16 -61
-26 -84 -11 -23 -19 -48 -19 -56 0 -8 -7 -17 -15 -21 -8 -3 -15 -12 -15 -20 0
-7 -6 -16 -13 -19 -8 -3 -24 -34 -37 -69 -34 -95 -72 -170 -101 -199 -15 -14
-30 -37 -34 -50 -4 -13 -12 -30 -18 -38 -15 -18 -33 -49 -52 -88 -8 -17 -33
-52 -55 -78 -22 -26 -47 -60 -55 -76 -9 -16 -20 -29 -24 -29 -5 0 -12 -14 -16
-30 -4 -17 -13 -30 -21 -30 -8 0 -14 -7 -14 -15 0 -9 -6 -18 -14 -21 -8 -3
-19 -18 -26 -33 -6 -16 -21 -34 -33 -40 -12 -7 -35 -30 -52 -52 -16 -21 -85
-95 -152 -164 -68 -69 -123 -130 -123 -135 0 -6 -11 -15 -25 -20 -14 -5 -25
-14 -25 -20 0 -5 -5 -10 -11 -10 -6 0 -27 -15 -47 -34 -62 -57 -89 -80 -113
-96 -12 -8 -33 -25 -47 -37 -13 -12 -32 -25 -42 -28 -10 -3 -21 -12 -24 -20
-3 -8 -12 -15 -20 -15 -7 0 -16 -7 -20 -15 -3 -8 -11 -15 -19 -15 -7 0 -28
-15 -46 -34 -18 -19 -44 -37 -57 -40 -13 -4 -24 -11 -24 -16 0 -6 -5 -10 -12
-10 -6 0 -26 -11 -43 -24 -18 -14 -44 -28 -59 -32 -14 -3 -26 -10 -26 -14 0
-5 -13 -11 -30 -15 -16 -4 -33 -12 -37 -18 -9 -14 -38 -33 -73 -48 -14 -5 -43
-19 -66 -30 -22 -10 -44 -19 -48 -19 -4 0 -14 -7 -22 -15 -9 -8 -24 -15 -35
-15 -10 0 -19 -4 -19 -9 0 -5 -17 -15 -37 -22 -21 -6 -49 -17 -63 -24 -63 -31
-118 -54 -147 -60 -18 -4 -33 -11 -33 -16 0 -5 -6 -9 -13 -9 -7 0 -30 -9 -52
-20 -22 -11 -51 -20 -65 -20 -14 0 -38 -7 -54 -15 -16 -9 -57 -18 -90 -22 -34
-3 -72 -11 -86 -18 -14 -7 -44 -16 -68 -20 -24 -4 -56 -13 -70 -21 -15 -8 -38
-14 -52 -14 -13 0 -42 -7 -65 -15 -105 -39 -843 -68 -975 -39 -36 8 -83 14
-105 13 -75 -1 -200 12 -238 27 -20 8 -47 14 -60 14 -12 0 -35 7 -50 15 -15 8
-45 17 -65 21 -20 4 -48 12 -62 19 -14 7 -58 15 -98 18 -41 3 -79 10 -85 15
-7 5 -33 13 -59 16 -26 4 -49 13 -52 21 -3 8 -13 15 -23 15 -10 0 -35 9 -56
20 -20 11 -45 20 -55 20 -10 0 -27 7 -38 14 -12 8 -41 20 -67 26 -25 7 -48 18
-51 26 -3 8 -12 14 -19 14 -8 0 -20 7 -27 15 -7 8 -23 15 -35 15 -12 0 -28 7
-35 15 -7 8 -18 15 -24 15 -6 0 -27 9 -47 19 -20 11 -52 23 -72 26 -20 4 -38
13 -41 21 -3 8 -12 14 -21 14 -8 0 -15 5 -15 11 0 5 -15 16 -34 24 -19 8 -37
19 -41 25 -3 5 -15 10 -26 10 -10 0 -27 9 -36 20 -10 11 -21 20 -25 20 -5 0
-17 9 -28 20 -11 11 -29 20 -40 20 -11 0 -20 7 -20 15 0 8 -7 15 -15 15 -9 0
-18 7 -21 15 -3 8 -21 19 -40 25 -19 6 -34 15 -34 20 0 5 -9 12 -20 15 -11 3
-20 13 -20 21 0 8 -6 14 -13 14 -7 0 -20 9 -30 20 -9 11 -23 20 -30 20 -8 0
-22 9 -32 20 -10 11 -24 20 -32 20 -7 0 -13 7 -13 15 0 8 -7 15 -15 15 -8 0
-15 5 -15 11 0 14 -87 97 -109 104 -9 3 -25 18 -34 35 -10 16 -22 30 -27 30
-14 0 -130 122 -130 137 0 7 -6 13 -14 13 -7 0 -22 12 -32 26 -24 33 -76 84
-86 84 -5 0 -8 5 -8 11 0 7 -15 26 -34 43 -18 18 -36 41 -40 52 -3 11 -22 36
-41 55 -19 18 -35 39 -35 45 0 7 -7 14 -15 18 -8 3 -15 12 -15 21 0 8 -5 15
-11 15 -5 0 -17 16 -25 35 -8 19 -19 35 -24 35 -5 0 -16 15 -25 33 -20 44 -38
70 -52 80 -7 4 -13 15 -13 23 0 20 -31 75 -57 102 -13 12 -23 29 -23 37 0 8
-4 15 -10 15 -5 0 -12 16 -16 35 -3 19 -12 39 -18 43 -7 4 -20 28 -29 53 -10
25 -29 56 -42 69 -14 13 -25 31 -25 39 0 9 -6 28 -14 43 -8 15 -17 42 -21 60
-4 18 -13 40 -20 48 -7 8 -15 32 -19 53 -4 20 -11 37 -16 37 -6 0 -10 6 -10
13 0 6 -9 23 -20 37 -11 14 -20 32 -20 40 0 8 -7 27 -15 43 -8 15 -17 55 -21
90 -3 34 -12 74 -19 89 -7 15 -17 42 -21 60 -3 18 -15 49 -25 68 -11 19 -19
44 -19 55 0 11 -6 30 -14 41 -10 13 -16 69 -21 179 -4 88 -12 171 -18 185 -13
35 -30 271 -28 410 2 178 20 493 30 510 5 9 12 71 16 139 5 87 11 124 21 128
7 2 16 19 20 36 3 18 12 43 20 57 21 39 42 128 49 205 10 116 14 131 45 161
16 16 30 33 30 37 0 4 8 27 19 50 10 23 22 57 26 75 3 17 11 32 16 32 5 0 9
13 9 30 0 32 19 80 32 80 4 0 8 9 8 20 0 11 6 20 14 20 8 0 17 14 21 31 4 17
13 33 20 35 7 3 16 21 20 41 7 40 43 113 55 113 5 0 12 9 15 20 3 11 12 20 20
20 7 0 16 15 19 34 4 19 13 37 21 40 8 3 15 12 15 21 0 19 51 115 62 115 4 0
8 7 8 15 0 8 9 19 20 25 11 6 22 21 26 34 3 12 18 30 34 39 17 10 31 29 35 47
4 17 11 30 16 30 6 0 17 16 25 35 9 22 21 35 33 35 11 0 33 22 56 55 21 30 42
55 47 55 4 0 8 6 8 13 0 7 8 20 17 29 10 8 27 27 38 41 11 15 24 26 28 27 5 0
33 25 62 55 29 30 55 55 58 55 3 0 56 50 118 110 64 62 121 110 132 110 11 0
44 25 73 55 30 30 61 55 70 55 8 0 17 7 20 15 4 8 12 15 19 15 6 0 20 9 29 19
10 11 28 22 42 25 13 4 24 13 24 21 0 8 7 15 15 15 9 0 18 6 21 14 3 8 20 18
37 22 38 8 107 43 107 54 0 4 47 31 105 59 57 29 107 56 110 61 4 6 20 10 36
10 17 0 32 6 35 15 4 8 12 15 19 15 6 0 20 9 30 20 10 11 28 20 41 20 13 0 26
5 29 11 4 5 17 9 28 8 12 -1 35 3 50 9 16 7 43 12 62 12 19 0 35 6 38 14 3 8
22 18 41 21 19 4 37 13 40 21 3 8 11 14 18 14 7 0 30 9 51 20 22 12 56 20 84
20 27 0 60 6 75 14 14 8 54 17 87 21 34 4 63 11 66 15 3 5 27 12 53 15 52 7
208 41 262 58 48 15 273 25 470 21 91 -2 249 -4 352 -5z m-4245 -3911 c-1 -57
-3 -11 -3 102 0 113 2 159 3 103 2 -57 2 -149 0 -205z m7341 -1796 c2 -13 -3
-25 -13 -28 -9 -4 -21 -17 -26 -30 -10 -27 -27 -31 -35 -9 -4 9 4 25 20 40 14
13 26 31 26 40 0 24 24 12 28 -13z m-78 -128 c0 -8 -7 -17 -15 -20 -8 -3 -17
-15 -20 -25 -8 -24 -27 -20 -31 5 -1 11 5 20 16 23 10 3 21 14 23 25 6 22 27
16 27 -8z m-77 -89 c-3 -37 -10 -42 -30 -22 -12 12 -13 17 -5 17 7 0 10 5 7
10 -8 14 4 32 18 27 7 -2 11 -17 10 -32z m-33 -61 c0 -8 -4 -12 -10 -9 -5 3
-10 13 -10 21 0 8 5 12 10 9 6 -3 10 -13 10 -21z m-35 -19 c0 -17 -5 -25 -17
-25 -10 0 -18 7 -18 15 0 7 8 19 18 24 9 6 17 11 17 11 0 0 0 -11 0 -25z m-37
-58 c2 -10 -3 -17 -12 -17 -10 0 -16 9 -16 21 0 24 23 21 28 -4z m-35 -58 c-3
-10 -10 -19 -15 -19 -5 0 -6 10 -3 21 5 15 4 19 -4 15 -6 -4 -11 -3 -11 3 0
13 24 20 31 8 4 -5 4 -18 2 -28z m-40 -39 c-6 -22 -33 -28 -33 -7 0 17 10 27
26 27 7 0 10 -8 7 -20z m-33 -45 c0 -8 -4 -15 -10 -15 -5 0 -10 7 -10 15 0 8
5 15 10 15 6 0 10 -7 10 -15z m-40 -35 c0 -5 -7 -10 -16 -10 -8 0 -12 5 -9 10
3 6 10 10 16 10 5 0 9 -4 9 -10z m-34 -31 c3 -6 1 -16 -5 -22 -9 -9 -14 -8
-21 3 -5 8 -10 18 -10 23 0 11 28 8 36 -4z m-36 -36 c0 -5 -4 -14 -9 -22 -11
-17 -32 -5 -24 14 5 15 33 21 33 8z m-40 -33 c11 -7 12 -12 3 -21 -13 -13 -33
-4 -33 17 0 16 9 18 30 4z m-35 -40 c8 -14 -50 -74 -63 -66 -6 3 -8 15 -5 26
3 11 10 17 15 14 5 -3 12 3 15 15 6 22 27 28 38 11z m-70 -80 c0 -8 -10 -17
-23 -20 -13 -3 -23 -8 -23 -12 2 -23 0 -27 -14 -22 -22 9 -18 31 5 37 11 3 20
13 20 22 0 10 6 15 18 13 9 -2 17 -10 17 -18z m-5432 -35 c1 -5 -6 -11 -15
-13 -11 -2 -18 3 -18 13 0 17 30 18 33 0z m5357 -34 c0 -3 -5 -13 -10 -21 -7
-11 -10 -11 -10 -2 0 7 -4 10 -10 7 -11 -7 -12 -3 -4 19 5 14 34 12 34 -3z
m-5279 -30 c22 -21 39 -43 39 -49 0 -5 16 -13 35 -16 20 -4 33 -11 29 -17 -3
-6 3 -13 15 -16 19 -5 25 -15 22 -35 0 -5 7 -8 18 -8 10 0 21 -9 24 -20 3 -11
12 -20 21 -20 9 0 16 -4 16 -10 0 -5 -2 -10 -4 -10 -2 0 -12 -3 -22 -7 -13 -5
-16 -3 -11 10 4 11 -1 17 -16 19 -12 2 -22 9 -22 16 0 18 -24 30 -46 25 -14
-4 -19 0 -19 16 0 12 -6 21 -14 21 -17 0 -66 43 -66 57 0 6 -10 13 -21 16 -14
4 -20 11 -16 21 3 8 2 18 -3 21 -4 3 -10 -1 -12 -7 -3 -8 -9 -4 -17 10 -20 38
26 27 70 -17z m5245 -2 c7 -12 -15 -31 -28 -23 -4 3 -8 12 -8 20 0 17 26 19
36 3z m-36 -44 c0 -8 -9 -15 -20 -15 -22 0 -27 15 -7 23 21 9 27 7 27 -8z
m-42 -38 c2 -12 -3 -17 -17 -17 -12 0 -21 -6 -21 -15 0 -10 -9 -14 -25 -13
-30 3 -33 14 -5 23 11 3 25 15 31 26 12 23 32 20 37 -4z m-108 -70 c0 -19 -10
-27 -26 -20 -21 8 -17 33 6 33 11 0 20 -6 20 -13z m-42 -48 c-16 -10 -33 5
-23 21 5 8 11 8 21 -1 12 -10 12 -14 2 -20z m-4758 -15 c0 -8 4 -13 9 -10 5 3
11 -1 15 -9 3 -8 15 -15 26 -15 21 0 28 -26 8 -32 -26 -9 -58 4 -58 24 0 14
-5 18 -15 15 -17 -7 -29 8 -21 28 7 20 36 19 36 -1z m4730 2 c0 -3 -4 -8 -10
-11 -5 -3 -10 -1 -10 4 0 6 5 11 10 11 6 0 10 -2 10 -4z m-49 -29 c-1 -12 -15
-9 -19 4 -3 6 1 10 8 8 6 -3 11 -8 11 -12z m-26 -17 c11 -17 -5 -32 -21 -19
-8 6 -14 15 -14 20 0 12 27 11 35 -1z m-4545 -34 c0 -7 9 -16 21 -19 13 -4 19
-12 17 -23 -5 -28 -27 -28 -39 -1 -7 15 -17 23 -25 20 -9 -3 -14 2 -14 16 0
14 6 21 20 21 11 0 20 -6 20 -14z m4505 -7 c0 -9 -8 -13 -22 -11 -18 2 -20 -1
-16 -19 5 -19 3 -21 -15 -17 -12 3 -23 1 -24 -4 -2 -6 -10 -2 -18 8 -14 16
-13 17 13 12 18 -4 27 -1 27 8 0 17 30 46 44 41 6 -2 11 -10 11 -18z m-4397
-70 c4 -20 -18 -30 -47 -22 -12 3 -21 13 -21 25 0 16 6 19 32 16 21 -2 34 -9
36 -19z m4292 -10 c0 -5 -4 -9 -10 -9 -5 0 -10 7 -10 16 0 8 5 12 10 9 6 -3
10 -10 10 -16z m-35 1 c-3 -5 -11 -10 -16 -10 -6 0 -7 5 -4 10 3 6 11 10 16
10 6 0 7 -4 4 -10z m-4179 -35 c9 -8 22 -15 29 -15 8 0 22 -11 31 -25 9 -14
20 -23 24 -20 5 3 14 0 22 -7 7 -7 22 -15 33 -16 11 -2 26 -9 34 -15 8 -7 30
-20 50 -29 l36 -17 -29 -11 c-38 -14 -56 -7 -56 22 0 14 -3 18 -8 11 -12 -19
-62 -4 -62 19 0 10 -4 17 -10 13 -18 -11 -60 7 -60 26 0 13 -6 18 -22 16 -18
-2 -23 3 -21 21 2 12 -2 22 -7 22 -6 0 -10 -4 -10 -9 0 -11 -48 -2 -56 11 -3
5 0 15 6 23 13 16 50 6 76 -20z m4135 0 c-1 -15 -24 -12 -29 3 -3 9 2 13 12
10 10 -1 17 -7 17 -13z m-31 -28 c0 -17 -61 -40 -74 -27 -7 7 -4 10 7 10 10 0
20 7 23 15 7 18 44 20 44 2z m-80 -46 c0 -10 -50 -25 -58 -16 -3 3 2 5 12 5 9
0 14 5 11 10 -3 6 3 10 14 10 12 0 21 -4 21 -9z m-70 -38 c0 -10 -6 -14 -20
-10 -11 3 -20 1 -20 -4 0 -5 -7 -9 -15 -9 -8 0 -15 -7 -15 -15 0 -11 -10 -15
-37 -14 -21 0 -31 3 -23 6 8 4 20 13 27 22 6 9 15 13 18 9 11 -11 47 11 39 24
-5 7 -1 9 9 5 10 -3 17 -2 17 4 0 6 5 7 10 4 6 -3 10 -13 10 -22z m-3663 -54
l28 -11 -25 -13 c-14 -8 -28 -14 -31 -15 -10 0 -20 30 -13 41 7 11 7 11 41 -2z
m3518 -19 c3 -5 -1 -10 -9 -10 -8 0 -18 5 -21 10 -3 6 1 10 9 10 8 0 18 -4 21
-10z m-3407 -20 c13 0 20 -4 17 -10 -3 -5 7 -12 22 -16 15 -4 36 -15 46 -25
10 -11 28 -19 41 -19 13 0 26 -7 30 -15 3 -8 16 -15 28 -15 13 0 32 -7 42 -15
18 -14 16 -15 -27 -15 -31 0 -49 5 -53 13 -3 8 -19 14 -37 15 -17 0 -37 8 -43
16 -6 9 -23 16 -37 16 -15 0 -30 8 -36 18 -5 10 -22 19 -37 20 -34 3 -38 7
-30 28 4 11 13 14 29 10 12 -3 32 -6 45 -6z m3332 -15 c0 -9 -9 -15 -22 -14
-13 0 -17 3 -10 6 6 2 10 9 6 14 -3 5 2 9 10 9 9 0 16 -7 16 -15z m-76 -26 c3
-3 -8 -10 -24 -16 -24 -9 -30 -9 -30 2 0 19 39 29 54 14z m-71 -45 c-3 -16
-30 -16 -36 0 -5 12 -1 15 16 12 12 -1 21 -7 20 -12z m-43 -14 c0 -5 -4 -10
-10 -10 -5 0 -10 5 -10 10 0 6 5 10 10 10 6 0 10 -4 10 -10z m-72 -26 c-1 -5
-9 -9 -16 -10 -10 -2 -11 1 -1 12 12 14 24 13 17 -2z m-2771 -20 c20 -5 21 -8
8 -21 -19 -18 -49 -13 -53 10 -4 18 8 21 45 11z m2660 -30 c-3 -3 -12 -4 -19
-1 -8 3 -5 6 6 6 11 1 17 -2 13 -5z m-2534 -23 c5 -5 -5 -9 -27 -9 -24 0 -36
5 -36 14 0 16 46 12 63 -5z m2431 10 c3 -5 -1 -11 -9 -14 -9 -4 -12 -1 -8 9 6
16 10 17 17 5z m-2329 -41 c3 -5 1 -10 -4 -10 -6 0 -11 5 -11 10 0 6 2 10 4
10 3 0 8 -4 11 -10z m2109 -41 c-3 -5 -10 -7 -15 -3 -5 3 -7 10 -3 15 3 5 10
7 15 3 5 -3 7 -10 3 -15z m-1940 -5 c3 -7 -5 -9 -20 -6 -13 2 -24 8 -24 13 0
12 39 6 44 -7z m1901 6 c-3 -5 -12 -10 -18 -10 -7 0 -6 4 3 10 19 12 23 12 15
0z m-1741 -32 c60 -1 21 -18 -41 -18 -42 0 -53 3 -53 16 0 13 6 15 28 10 15
-4 44 -7 66 -8z m1636 2 c0 -5 -7 -10 -15 -10 -8 0 -15 5 -15 10 0 6 7 10 15
10 8 0 15 -4 15 -10z m-80 -10 c0 -5 -5 -10 -11 -10 -5 0 -7 5 -4 10 3 6 8 10
11 10 2 0 4 -4 4 -10z m35 0 c3 -5 -1 -10 -9 -10 -9 0 -16 5 -16 10 0 6 4 10
9 10 6 0 13 -4 16 -10z m-1502 -17 c-7 -2 -19 -2 -25 0 -7 3 -2 5 12 5 14 0
19 -2 13 -5z m101 -12 c3 -5 -1 -11 -9 -15 -9 -3 -15 0 -15 9 0 16 16 20 24 6z
m966 -41 c0 -5 -7 -10 -15 -10 -8 0 -15 5 -15 10 0 6 7 10 15 10 8 0 15 -4 15
-10z"/>
<path d="M4130 6971 c0 -13 -82 -31 -143 -31 -30 0 -68 -7 -83 -15 -16 -8 -43
-15 -60 -15 -23 0 -33 -5 -37 -20 -4 -15 -14 -20 -39 -20 -18 0 -39 -4 -46 -9
-9 -5 31 -11 100 -15 62 -4 131 -10 153 -13 22 -3 49 -6 60 -6 11 -1 22 -4 26
-9 3 -4 45 -8 95 -9 49 -1 109 -9 134 -17 25 -7 74 -18 109 -23 36 -5 67 -13
71 -18 3 -6 39 -15 80 -22 41 -6 78 -15 81 -21 3 -5 16 -10 27 -11 12 -1 25
-9 28 -19 3 -10 11 -18 18 -18 7 0 17 -15 22 -32 12 -42 56 -61 81 -35 15 15
15 17 0 23 -9 3 -17 13 -17 20 0 8 -7 17 -15 20 -8 3 -17 13 -20 23 -3 9 -15
17 -26 18 -12 1 -29 8 -38 16 -9 8 -24 17 -33 20 -11 4 -15 12 -12 22 17 43
-24 85 -84 85 -15 0 -40 7 -55 15 -16 8 -46 19 -68 25 -22 6 -37 15 -34 19 2
5 -9 11 -25 15 -20 3 -30 12 -30 23 0 10 -12 24 -27 31 -31 14 -193 17 -193 3z"/>
<path d="M3488 6853 c7 -3 16 -2 19 1 4 3 -2 6 -13 5 -11 0 -14 -3 -6 -6z"/>
<path d="M3623 6853 c9 -2 23 -2 30 0 6 3 -1 5 -18 5 -16 0 -22 -2 -12 -5z"/>
<path d="M2680 6791 c0 -5 -7 -17 -16 -26 -9 -9 -19 -36 -22 -61 -4 -39 -2
-44 15 -44 12 0 27 13 39 35 10 19 24 35 31 35 8 0 13 13 13 35 0 32 -2 35
-30 35 -16 0 -30 -4 -30 -9z"/>
<path d="M5857 6788 c-8 -5 -9 -10 -1 -18 11 -11 104 -2 104 10 0 11 -88 17
-103 8z"/>
<path d="M3588 6122 c-24 -11 -41 -28 -52 -53 -19 -44 -20 -66 -1 -99 8 -14
14 -47 15 -73 0 -26 7 -61 15 -76 12 -25 12 -31 0 -47 -8 -11 -15 -35 -15 -54
0 -20 -7 -46 -16 -58 -14 -21 -14 -26 2 -67 9 -25 23 -45 30 -45 8 0 14 -4 14
-10 0 -14 75 -12 147 5 54 13 71 13 138 0 76 -15 76 -15 114 10 21 14 44 37
51 50 7 14 17 25 22 25 4 0 8 9 8 20 0 10 6 23 13 27 40 26 73 198 42 223 -8
7 -15 20 -15 29 0 9 -5 32 -10 52 -8 29 -16 38 -39 42 -22 5 -31 13 -36 35 -7
33 -31 48 -92 57 -24 4 -45 11 -48 15 -3 5 -60 9 -128 8 -91 0 -131 -4 -159
-16z m216 -137 c17 -17 36 -20 36 -5 0 6 27 10 61 10 37 0 58 -4 54 -10 -3 -5
1 -10 10 -10 8 0 19 -8 22 -17 4 -10 14 -23 22 -29 10 -8 14 -25 12 -53 -1
-24 4 -49 12 -62 13 -18 13 -24 1 -47 -8 -15 -14 -39 -14 -54 0 -23 -5 -28
-32 -32 -60 -9 -223 -14 -244 -8 -11 4 -43 26 -69 50 -48 42 -49 44 -50 103
-1 43 3 63 12 66 7 3 13 11 13 19 0 8 4 14 9 14 5 0 24 15 43 34 29 29 47 39
80 45 4 0 13 -6 22 -14z"/>
<path d="M5117 5923 c-4 -10 -12 -26 -19 -35 -10 -15 -10 -24 5 -50 9 -18 20
-48 23 -65 4 -18 10 -33 14 -33 10 0 21 100 12 114 -4 6 -7 26 -7 45 0 37 -19
53 -28 24z"/>
<path d="M4588 5329 c-10 -5 -18 -21 -18 -35 0 -14 7 -27 18 -31 9 -4 21 -12
25 -20 4 -7 16 -13 26 -13 9 0 26 -7 37 -15 22 -17 60 -20 69 -5 3 5 -1 24 -9
42 -8 18 -17 45 -20 61 -6 25 -10 27 -59 27 -28 0 -60 -5 -69 -11z"/>
<path d="M2612 5020 c0 -14 2 -19 5 -12 2 6 2 18 0 25 -3 6 -5 1 -5 -13z"/>
<path d="M4980 5005 c0 -3 7 -22 15 -42 8 -19 15 -43 15 -52 0 -9 9 -34 20
-56 11 -22 20 -45 20 -52 0 -14 39 -34 52 -27 12 8 20 109 10 134 -18 45 -75
100 -105 100 -15 0 -27 -2 -27 -5z"/>
<path d="M2608 4970 c-3 -14 -7 -240 -8 -503 0 -263 -5 -500 -10 -525 -5 -26
-6 -93 -3 -149 4 -74 3 -103 -5 -103 -18 0 -15 -80 5 -153 22 -81 58 -137 89
-137 13 0 27 -7 32 -16 7 -12 30 -19 82 -23 63 -6 76 -11 94 -34 23 -29 42
-35 48 -15 4 11 23 12 153 8 36 -1 52 3 61 15 15 21 114 34 256 35 74 0 99 3
105 14 6 12 47 16 187 22 153 6 182 10 197 25 10 10 15 20 11 23 -18 11 -198
17 -607 21 -242 2 -455 7 -472 11 -18 3 -38 13 -44 20 -6 8 -18 14 -25 14 -8
0 -14 5 -14 10 0 6 -7 10 -15 10 -8 0 -15 5 -15 10 0 6 -11 20 -24 31 -22 19
-24 28 -23 98 0 42 -1 81 -4 86 -2 6 -2 143 1 305 3 162 2 408 -2 545 -4 138
-7 271 -7 298 0 35 -4 47 -15 47 -8 0 -16 8 -18 18 -3 13 -5 11 -10 -8z"/>
<path d="M3583 4907 c-32 -22 -59 -86 -51 -123 5 -26 64 -42 91 -24 61 37 132
68 172 74 25 4 45 11 45 16 0 4 36 10 79 11 117 6 129 27 19 36 -35 2 -80 11
-101 19 -23 9 -72 14 -130 13 -77 -1 -97 -4 -124 -22z"/>
<path d="M7000 4804 c0 -11 5 -14 16 -10 9 3 20 6 25 6 5 0 9 5 9 10 0 6 -11
10 -25 10 -16 0 -25 -6 -25 -16z"/>
<path d="M4211 4648 c-1 -80 2 -98 14 -98 19 0 19 107 0 159 -13 34 -14 31
-14 -61z"/>
<path d="M7657 4563 c-4 -3 -7 -27 -7 -52 0 -44 22 -81 49 -81 12 0 22 56 14
77 -9 25 -49 64 -56 56z"/>
<path d="M5127 4523 c-10 -9 -8 -246 2 -261 5 -8 23 -12 47 -10 l39 3 -3 55
c-8 124 -55 243 -85 213z"/>
<path d="M3550 4405 c0 -8 -7 -15 -15 -15 -11 0 -15 -12 -15 -44 0 -39 5 -48
38 -76 l37 -32 105 7 c58 4 146 8 195 9 57 2 109 9 143 21 46 17 52 22 52 48
0 28 -1 28 -42 22 -24 -3 -65 -8 -93 -9 -27 -2 -80 -7 -117 -11 -57 -6 -69 -5
-74 9 -4 10 -24 18 -55 22 -27 4 -49 10 -49 14 0 10 -76 50 -95 50 -8 0 -15
-7 -15 -15z"/>
<path d="M7563 4143 c-16 -11 -23 -26 -23 -49 0 -19 -9 -51 -20 -71 -11 -21
-16 -40 -12 -44 11 -11 62 2 62 15 0 6 9 19 20 29 20 17 28 85 14 121 -7 19
-13 19 -41 -1z"/>
<path d="M7456 3931 c-27 -18 -52 -62 -74 -128 -22 -69 38 -61 84 11 44 69 45
72 31 104 l-13 31 -28 -18z"/>
<path d="M7365 3750 c-3 -5 -1 -10 4 -10 6 0 11 5 11 10 0 6 -2 10 -4 10 -3 0
-8 -4 -11 -10z"/>
<path d="M7308 3712 c-10 -2 -18 -8 -18 -13 0 -5 -5 -9 -11 -9 -14 0 -59 -47
-59 -61 0 -15 49 -10 70 8 11 10 20 26 20 36 0 9 10 21 22 26 24 9 5 20 -24
13z"/>
<path d="M4255 3491 c-3 -5 -1 -13 5 -16 15 -9 90 4 90 16 0 12 -87 12 -95 0z"/>
</g>
</svg>
